<svg width="76" height="29" viewBox="0 0 76 29" fill="none" xmlns="http://www.w3.org/2000/svg">
<path d="M33.216 20.864C33.4933 20.864 33.7067 20.992 33.856 21.248C34.0267 21.504 34.112 21.856 34.112 22.304C34.112 23.136 33.9093 23.7973 33.504 24.288C32.48 25.5253 31.4453 26.4853 30.4 27.168C29.3547 27.8293 28.1173 28.16 26.688 28.16C25.1093 28.16 23.8187 27.7013 22.816 26.784C21.8133 25.8453 20.8747 24.3947 20 22.432C19.36 21.024 18.8267 19.9787 18.4 19.296C17.9947 18.592 17.5893 18.1013 17.184 17.824C16.7787 17.5253 16.2667 17.344 15.648 17.28L15.296 19.648C14.848 22.6987 13.9733 24.896 12.672 26.24C11.392 27.584 9.62133 28.256 7.36 28.256C5.888 28.256 4.576 27.904 3.424 27.2C2.29333 26.4747 1.504 25.5573 1.056 24.448C0.906667 24.064 0.832 23.648 0.832 23.2C0.832 22.56 0.981333 22.0053 1.28 21.536C1.57867 21.0667 1.96267 20.832 2.432 20.832C2.70933 20.832 2.944 20.9067 3.136 21.056C3.328 21.184 3.50933 21.4187 3.68 21.76C4.34133 22.9973 4.91733 23.8613 5.408 24.352C5.92 24.8427 6.54933 25.088 7.296 25.088C8.14933 25.088 8.87467 24.704 9.472 23.936C10.0907 23.1467 10.528 21.9413 10.784 20.32L11.232 17.28H10.72C10.2293 17.28 9.84533 17.1413 9.568 16.864C9.29067 16.5867 9.152 16.2027 9.152 15.712C9.152 15.1573 9.29067 14.72 9.568 14.4C9.86667 14.0587 10.2293 13.888 10.656 13.888H11.712C11.8613 12.8427 11.968 12.1173 12.032 11.712L13.024 4.512C12.4693 4.448 11.9467 4.416 11.456 4.416C9.64267 4.416 8.26667 4.736 7.328 5.376C6.38933 5.99467 5.92 6.89067 5.92 8.064C5.92 8.59733 5.97333 9.03467 6.08 9.376C6.208 9.696 6.368 10.0587 6.56 10.464C6.64533 10.6347 6.688 10.8267 6.688 11.04C6.688 11.5093 6.464 11.9253 6.016 12.288C5.58933 12.6293 5.10933 12.8 4.576 12.8C3.89333 12.8 3.392 12.5013 3.072 11.904C2.432 10.7733 2.112 9.55733 2.112 8.256C2.112 6.912 2.47467 5.68533 3.2 4.576C3.94667 3.46667 5.06667 2.58133 6.56 1.92C8.05333 1.23733 9.89867 0.895998 12.096 0.895998C13.056 0.895998 13.9307 0.949331 14.72 1.056C15.5307 1.16267 16.416 1.36533 17.376 1.664C18.4213 1.984 18.944 2.58133 18.944 3.456C18.944 4.62933 18.4427 5.216 17.44 5.216L16.192 13.824C18.688 13.568 20.7147 12.5013 22.272 10.624C23.8507 8.72533 25.1627 6.15467 26.208 2.912C26.4 2.31467 26.72 1.856 27.168 1.536C27.6373 1.216 28.224 1.056 28.928 1.056C29.5253 1.056 29.984 1.19466 30.304 1.472C30.6453 1.728 30.816 2.10133 30.816 2.592C30.816 2.74133 30.7733 2.98667 30.688 3.328C29.6213 6.848 28.096 9.64267 26.112 11.712C24.128 13.7813 21.9627 15.1573 19.616 15.84C20.4267 16.032 21.088 16.32 21.6 16.704C22.1333 17.088 22.5813 17.568 22.944 18.144C23.3067 18.6987 23.7227 19.4773 24.192 20.48C24.8533 21.888 25.472 22.8907 26.048 23.488C26.624 24.064 27.296 24.352 28.064 24.352C28.7467 24.352 29.3973 24.128 30.016 23.68C30.6347 23.2107 31.4133 22.4213 32.352 21.312C32.608 21.0133 32.896 20.864 33.216 20.864ZM33.7768 28.16C32.9661 28.16 32.3901 27.7333 32.0488 26.88C31.7288 26.0267 31.5688 24.6613 31.5688 22.784C31.5688 20.0107 31.9634 17.376 32.7528 14.88C32.9448 14.2613 33.2541 13.8133 33.6808 13.536C34.1288 13.2373 34.7474 13.088 35.5368 13.088C35.9634 13.088 36.2621 13.1413 36.4328 13.248C36.6034 13.3547 36.6888 13.5573 36.6888 13.856C36.6888 14.1973 36.5288 14.9653 36.2088 16.16C35.9954 17.0133 35.8248 17.76 35.6968 18.4C35.5688 19.04 35.4621 19.8293 35.3768 20.768C36.0808 18.9333 36.8701 17.44 37.7448 16.288C38.6194 15.136 39.4728 14.3147 40.3048 13.824C41.1581 13.3333 41.9368 13.088 42.6408 13.088C44.0274 13.088 44.7208 13.7813 44.7208 15.168C44.7208 16 44.4861 17.504 44.0168 19.68C43.6114 21.536 43.4088 22.7627 43.4088 23.36C43.4088 24.2133 43.7181 24.64 44.3368 24.64C44.7634 24.64 45.2648 24.384 45.8408 23.872C46.4381 23.3387 47.2274 22.4853 48.2088 21.312C48.4648 21.0133 48.7528 20.864 49.0728 20.864C49.3501 20.864 49.5634 20.992 49.7128 21.248C49.8834 21.504 49.9688 21.856 49.9688 22.304C49.9688 23.1573 49.7661 23.8187 49.3608 24.288C48.4434 25.4187 47.4514 26.3467 46.3848 27.072C45.3394 27.7973 44.1448 28.16 42.8008 28.16C41.7128 28.16 40.8914 27.8507 40.3368 27.232C39.7821 26.592 39.5048 25.6747 39.5048 24.48C39.5048 23.8827 39.6541 22.816 39.9528 21.28C40.2301 19.936 40.3688 19.008 40.3688 18.496C40.3688 18.1547 40.2514 17.984 40.0168 17.984C39.7394 17.984 39.3448 18.3467 38.8328 19.072C38.3421 19.776 37.8301 20.7147 37.2968 21.888C36.7848 23.0613 36.3688 24.2987 36.0488 25.6C35.8141 26.6027 35.5368 27.2853 35.2168 27.648C34.9181 27.9893 34.4381 28.16 33.7768 28.16ZM63.6998 18.176C63.9771 18.176 64.1904 18.3147 64.3398 18.592C64.4891 18.8693 64.5638 19.2213 64.5638 19.648C64.5638 20.672 64.2544 21.28 63.6358 21.472C62.3558 21.92 60.9478 22.176 59.4118 22.24C59.0064 24.032 58.2064 25.472 57.0118 26.56C55.8171 27.6267 54.4624 28.16 52.9478 28.16C51.6678 28.16 50.5691 27.8507 49.6518 27.232C48.7558 26.6133 48.0731 25.792 47.6038 24.768C47.1344 23.744 46.8997 22.6347 46.8997 21.44C46.8997 19.8187 47.2091 18.3787 47.8278 17.12C48.4464 15.84 49.2998 14.848 50.3878 14.144C51.4758 13.4187 52.6811 13.056 54.0038 13.056C55.6251 13.056 56.9264 13.6213 57.9078 14.752C58.9104 15.8613 59.4971 17.2373 59.6678 18.88C60.6704 18.816 61.8651 18.6027 63.2518 18.24C63.4224 18.1973 63.5718 18.176 63.6998 18.176ZM53.2038 24.768C53.8864 24.768 54.4731 24.4907 54.9638 23.936C55.4758 23.3813 55.8171 22.5813 55.9878 21.536C55.3264 21.088 54.8144 20.5013 54.4518 19.776C54.1104 19.0507 53.9398 18.2827 53.9398 17.472C53.9398 17.1307 53.9718 16.7893 54.0358 16.448H53.8758C53.0224 16.448 52.3078 16.864 51.7318 17.696C51.1771 18.5067 50.8998 19.6587 50.8998 21.152C50.8998 22.3253 51.1238 23.2213 51.5718 23.84C52.0411 24.4587 52.5851 24.768 53.2038 24.768ZM67.9098 16.128C67.8671 17.1947 67.8458 18.0267 67.8458 18.624C67.8458 20.16 67.9204 21.3653 68.0698 22.24C68.2404 23.0933 68.5071 23.712 68.8698 24.096C69.2538 24.4587 69.7764 24.64 70.4378 24.64C70.7791 24.64 71.1844 24.5333 71.6538 24.32C72.1231 24.1067 72.5498 23.8293 72.9338 23.488C73.1684 23.2747 73.4031 23.168 73.6378 23.168C73.8938 23.168 74.0964 23.3173 74.2458 23.616C74.4164 23.8933 74.5018 24.2347 74.5018 24.64C74.5018 25.0453 74.4164 25.44 74.2458 25.824C74.0964 26.208 73.8618 26.528 73.5418 26.784C72.4324 27.7013 71.1738 28.16 69.7658 28.16C67.7391 28.16 66.2564 27.3173 65.3177 25.632C64.3791 23.9253 63.9098 21.7067 63.9098 18.976C63.9098 18.0373 63.9418 17.088 64.0058 16.128H62.7578C62.1178 16.128 61.6804 16.0107 61.4458 15.776C61.2324 15.5413 61.1258 15.168 61.1258 14.656C61.1258 13.4613 61.6058 12.864 62.5658 12.864H64.3898C64.7524 10.5173 65.3071 8.37333 66.0538 6.432C66.8004 4.49067 67.6964 2.944 68.7418 1.792C69.8084 0.639999 70.9498 0.0639992 72.1658 0.0639992C73.0618 0.0639992 73.7658 0.458666 74.2778 1.248C74.7898 2.03733 75.0458 3.02933 75.0458 4.224C75.0458 7.53067 73.6591 10.4107 70.8858 12.864H74.4698C74.8111 12.864 75.0564 12.9387 75.2058 13.088C75.3551 13.2373 75.4298 13.5147 75.4298 13.92C75.4298 15.392 74.2244 16.128 71.8138 16.128H67.9098ZM71.3018 3.136C70.9818 3.136 70.6191 3.54133 70.2138 4.352C69.8298 5.14133 69.4564 6.25067 69.0938 7.68C68.7524 9.088 68.4644 10.656 68.2298 12.384C69.4884 11.296 70.4271 10.08 71.0458 8.736C71.6858 7.37067 72.0058 6.13333 72.0058 5.024C72.0058 3.76533 71.7711 3.136 71.3018 3.136Z" fill="#FCFCFC"/>
</svg>
