<svg width="8" height="8" viewBox="0 0 8 8" fill="none" xmlns="http://www.w3.org/2000/svg">
<path fill-rule="evenodd" clip-rule="evenodd" d="M4 0C2.93913 0 1.92172 0.421427 1.17157 1.17157C0.421427 1.92172 0 2.93913 0 4C0 5.06087 0.421427 6.07828 1.17157 6.82843C1.92172 7.57857 2.93913 8 4 8C5.06087 8 6.07828 7.57857 6.82843 6.82843C7.57857 6.07828 8 5.06087 8 4C8 2.93913 7.57857 1.92172 6.82843 1.17157C6.07828 0.421427 5.06087 0 4 0ZM1.6 4C1.6 3.36348 1.85286 2.75303 2.30294 2.30294C2.75303 1.85286 3.36348 1.6 4 1.6C4.63652 1.6 5.24697 1.85286 5.69706 2.30294C6.14714 2.75303 6.4 3.36348 6.4 4C6.4 4.63652 6.14714 5.24697 5.69706 5.69706C5.24697 6.14714 4.63652 6.4 4 6.4C3.36348 6.4 2.75303 6.14714 2.30294 5.69706C1.85286 5.24697 1.6 4.63652 1.6 4Z" fill="#FCFCFC" fill-opacity="0.8"/>
</svg>
