<svg width="16" height="16" viewBox="0 0 16 16" fill="none" xmlns="http://www.w3.org/2000/svg">
<path d="M4.61333 4.63733L3.63333 3.64867M9.83933 4.63733L10.8193 3.64867M3.63267 10.902L4.61267 9.91267M7.226 3.31933V2M3.306 7.27533H2M11.25 11.224L13.7927 10.22C13.854 10.1955 13.9066 10.1531 13.9436 10.0984C13.9807 10.0436 14.0005 9.97908 14.0005 9.913C14.0005 9.84692 13.9807 9.78236 13.9436 9.72764C13.9066 9.67292 13.854 9.63055 13.7927 9.606L7.68267 7.196C7.62318 7.17298 7.55828 7.1678 7.4959 7.1811C7.43352 7.1944 7.37637 7.2256 7.33145 7.27087C7.28653 7.31615 7.25578 7.37354 7.24297 7.43602C7.23016 7.49851 7.23585 7.56337 7.25933 7.62267L9.64733 13.79C9.75533 14.07 10.1473 14.07 10.2553 13.79L11.25 11.224Z" stroke="#CFCFCF" stroke-linecap="round" stroke-linejoin="round"/>
</svg>
