<svg width="16" height="16" viewBox="0 0 16 16" fill="none" xmlns="http://www.w3.org/2000/svg">
<g clip-path="url(#clip0_23_354)">
<path fill-rule="evenodd" clip-rule="evenodd" d="M8.16634 1.88925C7.85967 1.83725 7.44101 1.83325 6.68634 1.83325C5.40834 1.83325 4.49967 1.83459 3.81167 1.92659C3.13701 2.01659 2.74967 2.18659 2.46767 2.46792C2.18567 2.74992 2.01634 3.13658 1.92634 3.80725C1.83434 4.49258 1.83301 5.39525 1.83301 6.66725V9.33392C1.83301 10.6046 1.83434 11.5073 1.92634 12.1926C2.01634 12.8633 2.18567 13.2499 2.46767 13.5326C2.74967 13.8139 3.13634 13.9833 3.80701 14.0733C4.49234 14.1659 5.39501 14.1666 6.66634 14.1666H9.33301C10.6043 14.1666 11.5077 14.1653 12.193 14.0733C12.863 13.9833 13.2497 13.8139 13.5317 13.5319C13.8137 13.2499 13.983 12.8633 14.073 12.1926C14.165 11.5079 14.1663 10.6046 14.1663 9.33325V9.04192C14.1663 8.01792 14.1597 7.53258 14.0503 7.16658H11.9637C11.2083 7.16658 10.5917 7.16658 10.1037 7.10125C9.59501 7.03259 9.15367 6.88458 8.80101 6.53192C8.44834 6.17925 8.30034 5.73858 8.23167 5.22858C8.16634 4.74192 8.16634 4.12459 8.16634 3.36859V1.88925ZM9.16634 2.40659V3.33325C9.16634 4.13325 9.16767 4.68259 9.22301 5.09525C9.27634 5.49392 9.37234 5.68925 9.50834 5.82459C9.64367 5.96059 9.83901 6.05658 10.2377 6.10992C10.6503 6.16525 11.1997 6.16658 11.9997 6.16658H13.3463C13.0905 5.92298 12.8305 5.68383 12.5663 5.44925L9.92701 3.07392C9.67802 2.84632 9.42441 2.62383 9.16634 2.40659ZM6.78301 0.833252C7.70634 0.833252 8.30301 0.833252 8.85167 1.04325C9.40034 1.25392 9.84167 1.65125 10.525 2.26659L10.5963 2.33059L13.235 4.70592L13.3183 4.78059C14.1077 5.49058 14.6183 5.94992 14.8923 6.56592C15.167 7.18192 15.167 7.86859 15.1663 8.92992V9.37058C15.1663 10.5959 15.1663 11.5666 15.0643 12.3259C14.959 13.1073 14.7377 13.7399 14.239 14.2393C13.7397 14.7379 13.107 14.9593 12.3257 15.0646C11.5657 15.1666 10.5957 15.1666 9.37034 15.1666H6.62901C5.40367 15.1666 4.43301 15.1666 3.67367 15.0646C2.89234 14.9593 2.25967 14.7379 1.76034 14.2393C1.26167 13.7399 1.04034 13.1073 0.935008 12.3259C0.833008 11.5659 0.833008 10.5959 0.833008 9.37058V6.62992C0.833008 5.40458 0.833008 4.43392 0.935008 3.67459C1.04034 2.89325 1.26167 2.26059 1.76034 1.76125C2.26034 1.26192 2.89434 1.04125 3.67901 0.935919C4.44167 0.833919 5.41701 0.833919 6.64901 0.833919H6.78367L6.78301 0.833252Z" fill="#FCFCFC" fill-opacity="0.8"/>
<path fill-rule="evenodd" clip-rule="evenodd" d="M6.00883 8.63526C5.91615 8.54836 5.79387 8.5 5.66683 8.5C5.53979 8.5 5.41751 8.54836 5.32483 8.63526L3.9915 9.88526C3.94249 9.92988 3.90284 9.98381 3.87486 10.0439C3.84688 10.104 3.83113 10.169 3.82851 10.2353C3.8259 10.3015 3.83648 10.3676 3.85964 10.4297C3.8828 10.4918 3.91808 10.5487 3.96342 10.597C4.00876 10.6453 4.06326 10.6842 4.12375 10.7113C4.18424 10.7384 4.24952 10.7532 4.31578 10.7548C4.38204 10.7564 4.44796 10.7449 4.50972 10.7208C4.57147 10.6968 4.62782 10.6606 4.6755 10.6146L5.16683 10.1546V12.3333C5.16683 12.4659 5.21951 12.593 5.31328 12.6868C5.40704 12.7806 5.53422 12.8333 5.66683 12.8333C5.79944 12.8333 5.92661 12.7806 6.02038 12.6868C6.11415 12.593 6.16683 12.4659 6.16683 12.3333V10.1539L6.65816 10.6146C6.75527 10.703 6.88327 10.7497 7.0145 10.7445C7.14573 10.7393 7.26966 10.6827 7.3595 10.5869C7.44934 10.4911 7.49788 10.3638 7.49464 10.2325C7.4914 10.1012 7.43662 9.9765 7.34216 9.88526L6.00883 8.63526Z" fill="#FCFCFC" fill-opacity="0.8"/>
</g>
<defs>
<clipPath id="clip0_23_354">
<rect width="16" height="16" fill="white"/>
</clipPath>
</defs>
</svg>
