<svg width="16" height="16" viewBox="0 0 16 16" fill="none" xmlns="http://www.w3.org/2000/svg">
<g clip-path="url(#clip0_23_349)">
<path d="M1.33301 8.33334L2.50101 7.31134C2.79377 7.05539 3.17284 6.92023 3.56149 6.93323C3.95014 6.94623 4.31934 7.10641 4.59434 7.38134L7.45434 10.2413C7.67628 10.4632 7.96938 10.5997 8.28204 10.6268C8.59471 10.6539 8.9069 10.5698 9.16367 10.3893L9.36301 10.2493C9.7334 9.9892 10.1811 9.86239 10.6329 9.88964C11.0847 9.91688 11.5139 10.0966 11.8503 10.3993L13.9997 12.3333" stroke="#FCFCFC" stroke-opacity="0.8" stroke-linecap="round"/>
<path d="M11.333 1.33325V7.33325M11.333 1.33325L13.333 3.33325M11.333 1.33325L9.33301 3.33325" stroke="#FCFCFC" stroke-opacity="0.8" stroke-linecap="round" stroke-linejoin="round"/>
<path d="M14.6663 7.99992C14.6663 11.1426 14.6663 12.7139 13.6897 13.6899C12.7143 14.6666 11.1423 14.6666 7.99967 14.6666C4.85701 14.6666 3.28567 14.6666 2.30901 13.6899C1.33301 12.7146 1.33301 11.1426 1.33301 7.99992C1.33301 7.24792 1.33301 6.58525 1.34634 5.99992M7.99967 1.33325C4.85701 1.33325 3.28567 1.33325 2.30901 2.30925C2.02634 2.59259 1.82501 2.92592 1.68234 3.33325" stroke="#FCFCFC" stroke-opacity="0.8" stroke-linecap="round"/>
</g>
<defs>
<clipPath id="clip0_23_349">
<rect width="16" height="16" fill="white"/>
</clipPath>
</defs>
</svg>
