<svg width="12" height="12" viewBox="0 0 12 12" fill="none" xmlns="http://www.w3.org/2000/svg">
<g clip-path="url(#clip0_78_299)">
<path d="M6 8.875C6.09946 8.875 6.19484 8.83549 6.26516 8.76517C6.33549 8.69484 6.375 8.59946 6.375 8.5V5.5C6.375 5.40054 6.33549 5.30516 6.26516 5.23484C6.19484 5.16451 6.09946 5.125 6 5.125C5.90054 5.125 5.80516 5.16451 5.73484 5.23484C5.66451 5.30516 5.625 5.40054 5.625 5.5V8.5C5.625 8.707 5.793 8.875 6 8.875ZM6 3.5C6.13261 3.5 6.25979 3.55268 6.35355 3.64645C6.44732 3.74021 6.5 3.86739 6.5 4C6.5 4.13261 6.44732 4.25979 6.35355 4.35355C6.25979 4.44732 6.13261 4.5 6 4.5C5.86739 4.5 5.74021 4.44732 5.64645 4.35355C5.55268 4.25979 5.5 4.13261 5.5 4C5.5 3.86739 5.55268 3.74021 5.64645 3.64645C5.74021 3.55268 5.86739 3.5 6 3.5Z" fill="#CFCFCF"/>
<path fill-rule="evenodd" clip-rule="evenodd" d="M0.625 6C0.625 3.0315 3.0315 0.625 6 0.625C8.9685 0.625 11.375 3.0315 11.375 6C11.375 8.9685 8.9685 11.375 6 11.375C3.0315 11.375 0.625 8.9685 0.625 6ZM6 1.375C4.77337 1.375 3.59699 1.86228 2.72963 2.72963C1.86228 3.59699 1.375 4.77337 1.375 6C1.375 7.22663 1.86228 8.40301 2.72963 9.27037C3.59699 10.1377 4.77337 10.625 6 10.625C7.22663 10.625 8.40301 10.1377 9.27037 9.27037C10.1377 8.40301 10.625 7.22663 10.625 6C10.625 4.77337 10.1377 3.59699 9.27037 2.72963C8.40301 1.86228 7.22663 1.375 6 1.375Z" fill="#CFCFCF"/>
</g>
<defs>
<clipPath id="clip0_78_299">
<rect width="12" height="12" fill="white"/>
</clipPath>
</defs>
</svg>
