<svg width="16" height="16" viewBox="0 0 16 16" fill="none" xmlns="http://www.w3.org/2000/svg">
<path fill-rule="evenodd" clip-rule="evenodd" d="M7.97 0.833374H8.03C9.25467 0.833374 10.214 0.833374 10.976 0.916041C11.7527 1.00004 12.3827 1.17471 12.92 1.56537C13.2454 1.8018 13.5316 2.08797 13.768 2.41337C14.1587 2.95137 14.3333 3.58004 14.4173 4.35737C14.5 5.11937 14.5 6.07871 14.5 7.30337V8.69671C14.5 9.92137 14.5 10.8807 14.4173 11.6427C14.3333 12.4194 14.1587 13.0494 13.768 13.5867C13.5316 13.9121 13.2454 14.1983 12.92 14.4347C12.382 14.8254 11.7533 15 10.976 15.084C10.214 15.1667 9.25467 15.1667 8.03 15.1667H7.97C6.74533 15.1667 5.786 15.1667 5.024 15.084C4.24733 15 3.61733 14.8254 3.08 14.4347C2.75459 14.1983 2.46843 13.9121 2.232 13.5867C1.84133 13.0487 1.66667 12.42 1.58267 11.6427C1.5 10.8807 1.5 9.92137 1.5 8.69671V7.30337C1.5 6.07871 1.5 5.11937 1.58267 4.35737C1.66667 3.58071 1.84133 2.95071 2.232 2.41337C2.46843 2.08797 2.75459 1.8018 3.08 1.56537C3.618 1.17471 4.24667 1.00004 5.024 0.916041C5.786 0.833374 6.74533 0.833374 7.97 0.833374ZM5.132 1.91004C4.44 1.98471 4.00667 2.12871 3.668 2.37471C3.42753 2.54943 3.21606 2.76091 3.04133 3.00137C2.79467 3.34004 2.65133 3.77337 2.57667 4.46537C2.50067 5.16671 2.5 6.07204 2.5 7.33337V8.66671C2.5 9.92804 2.50067 10.8334 2.57667 11.5347C2.65133 12.2267 2.79533 12.66 3.04133 12.9987C3.216 13.2387 3.428 13.4507 3.668 13.6254C4.00667 13.872 4.44 14.0154 5.132 14.09C5.83333 14.166 6.73867 14.1667 8 14.1667C9.26133 14.1667 10.1667 14.166 10.868 14.09C11.56 14.0147 11.9933 13.8714 12.332 13.6254C12.572 13.4507 12.784 13.2387 12.9587 12.9987C13.2053 12.66 13.3487 12.2267 13.4233 11.5347C13.4993 10.8334 13.5 9.92804 13.5 8.66671V7.33337C13.5 6.07204 13.4993 5.16671 13.4233 4.46537C13.348 3.77337 13.2047 3.34004 12.9587 3.00137C12.7839 2.76091 12.5725 2.54943 12.332 2.37471C11.9933 2.12804 11.56 1.98471 10.868 1.91004C10.1667 1.83404 9.26133 1.83337 8 1.83337C6.73867 1.83337 5.83333 1.83404 5.132 1.91004ZM4.16667 6.00004C4.16667 5.86743 4.21935 5.74026 4.31311 5.64649C4.40688 5.55272 4.53406 5.50004 4.66667 5.50004H11.3333C11.4659 5.50004 11.5931 5.55272 11.6869 5.64649C11.7807 5.74026 11.8333 5.86743 11.8333 6.00004C11.8333 6.13265 11.7807 6.25983 11.6869 6.35359C11.5931 6.44736 11.4659 6.50004 11.3333 6.50004H4.66667C4.53406 6.50004 4.40688 6.44736 4.31311 6.35359C4.21935 6.25983 4.16667 6.13265 4.16667 6.00004Z" fill="#FCFCFC"/>
</svg>
