<svg width="16" height="16" viewBox="0 0 16 16" fill="none" xmlns="http://www.w3.org/2000/svg">
<g clip-path="url(#clip0_91_266)">
<path d="M10.6663 7C10.6663 7.55267 10.3677 8 9.99967 8C9.63101 8 9.33301 7.55267 9.33301 7C9.33301 6.448 9.63101 6 9.99967 6C10.3677 6 10.6663 6.448 10.6663 7ZM6.66634 7C6.66634 7.55267 6.36767 8 5.99967 8C5.63167 8 5.33301 7.55267 5.33301 7C5.33301 6.448 5.63167 6 5.99967 6C6.36767 6 6.66634 6.448 6.66634 7Z" fill="#FCFCFC"/>
<path fill-rule="evenodd" clip-rule="evenodd" d="M8.84356 1.3673C8.86991 1.23735 8.9468 1.12319 9.05732 1.04993C9.16784 0.976665 9.30293 0.950302 9.43289 0.976638C10.8099 1.25842 12.0739 1.93849 13.0678 2.93239C14.0617 3.9263 14.7418 5.19025 15.0236 6.5673C15.0482 6.69659 15.0209 6.83038 14.9476 6.93966C14.8742 7.04895 14.7607 7.1249 14.6318 7.15105C14.5028 7.1772 14.3687 7.15143 14.2585 7.07934C14.1484 7.00725 14.0712 6.89465 14.0436 6.76597C13.8008 5.58152 13.2157 4.49439 12.3608 3.63944C11.5058 2.7845 10.4187 2.19937 9.23422 1.95664C9.10427 1.93029 8.99011 1.85339 8.91684 1.74287C8.84358 1.63235 8.81722 1.49726 8.84356 1.3673ZM7.15689 1.3673C7.18322 1.49726 7.15686 1.63235 7.0836 1.74287C7.01034 1.85339 6.89617 1.93029 6.76622 1.95664C5.58168 2.19942 4.49449 2.78465 3.63953 3.63972C2.78458 4.49479 2.1995 5.58206 1.95689 6.76664C1.9438 6.83099 1.91817 6.89213 1.88145 6.94657C1.84473 7.00101 1.79765 7.04768 1.7429 7.08393C1.68814 7.12017 1.62678 7.14528 1.56232 7.15781C1.49786 7.17035 1.43157 7.17006 1.36722 7.15697C1.30287 7.14388 1.24173 7.11825 1.18729 7.08153C1.13285 7.04481 1.08618 6.99773 1.04993 6.94298C1.01369 6.88822 0.988579 6.82686 0.976047 6.76241C0.963514 6.69795 0.9638 6.63165 0.976888 6.5673C1.25863 5.19034 1.9386 3.92645 2.93237 2.93255C3.92615 1.93866 5.18996 1.25854 6.56689 0.976638C6.69684 0.950302 6.83194 0.976665 6.94246 1.04993C7.05298 1.12319 7.13054 1.23735 7.15689 1.3673ZM1.36756 8.8433C1.49751 8.81697 1.6326 8.84333 1.74312 8.91659C1.85364 8.98986 1.93054 9.10402 1.95689 9.23397C2.19962 10.4184 2.78475 11.5056 3.63969 12.3605C4.49464 13.2154 5.58177 13.8006 6.76622 14.0433C6.83119 14.0557 6.89306 14.0809 6.94824 14.1173C7.00341 14.1538 7.05081 14.2009 7.08767 14.2558C7.12453 14.3107 7.15013 14.3724 7.16298 14.4373C7.17583 14.5022 7.17568 14.569 7.16254 14.6338C7.1494 14.6986 7.12353 14.7602 7.08642 14.8149C7.04932 14.8697 7.00171 14.9165 6.94638 14.9528C6.89104 14.989 6.82906 15.0139 6.76403 15.026C6.69901 15.0381 6.63223 15.0372 6.56756 15.0233C5.19059 14.7416 3.9267 14.0616 2.9328 13.0678C1.93891 12.074 1.25879 10.8102 0.976888 9.4333C0.963751 9.36891 0.963438 9.30256 0.975966 9.23804C0.988495 9.17352 1.01362 9.11211 1.0499 9.05731C1.08619 9.00251 1.13292 8.95541 1.18743 8.91869C1.24193 8.88196 1.30314 8.85635 1.36756 8.8433ZM14.6329 8.8433C14.6973 8.85635 14.7585 8.88196 14.813 8.91869C14.8675 8.95541 14.9143 9.00251 14.9505 9.05731C14.9868 9.11211 15.0119 9.17352 15.0245 9.23804C15.037 9.30256 15.0367 9.36891 15.0236 9.4333C14.7417 10.8102 14.0615 12.074 13.0676 13.0678C12.0737 14.0616 10.8099 14.7416 9.43289 15.0233C9.30361 15.048 9.16981 15.0207 9.06053 14.9473C8.95125 14.874 8.87529 14.7605 8.84914 14.6315C8.82299 14.5025 8.84876 14.3684 8.92085 14.2583C8.99294 14.1482 9.10554 14.0709 9.23422 14.0433C10.4187 13.8006 11.5058 13.2154 12.3608 12.3605C13.2157 11.5056 13.8008 10.4184 14.0436 9.23397C14.0699 9.10402 14.1468 8.98986 14.2573 8.91659C14.3678 8.84333 14.5029 8.81697 14.6329 8.8433ZM5.59822 10.3693C5.63732 10.3165 5.68646 10.2719 5.74281 10.238C5.79917 10.2042 5.86164 10.1818 5.92666 10.1722C5.99167 10.1625 6.05796 10.1658 6.12171 10.1817C6.18547 10.1977 6.24545 10.2261 6.29822 10.2653C6.78355 10.6253 7.36956 10.8333 8.00022 10.8333C8.63089 10.8333 9.21689 10.6253 9.70222 10.2653C9.75488 10.225 9.81503 10.1956 9.87917 10.1788C9.9433 10.162 10.0101 10.1581 10.0758 10.1673C10.1415 10.1766 10.2046 10.1988 10.2616 10.2327C10.3186 10.2666 10.3683 10.3114 10.4077 10.3647C10.4472 10.418 10.4757 10.4786 10.4916 10.543C10.5074 10.6073 10.5103 10.6742 10.5 10.7397C10.4898 10.8053 10.4666 10.8681 10.4318 10.9245C10.3971 10.981 10.3514 11.03 10.2976 11.0686C9.63414 11.5643 8.82838 11.8325 8.00022 11.8333C7.17184 11.8327 6.36582 11.5645 5.70222 11.0686C5.64939 11.0295 5.60478 10.9804 5.57095 10.924C5.53712 10.8677 5.51474 10.8052 5.50508 10.7402C5.49542 10.6752 5.49867 10.6089 5.51466 10.5451C5.53064 10.4814 5.55904 10.4221 5.59822 10.3693Z" fill="#FCFCFC"/>
</g>
<defs>
<clipPath id="clip0_91_266">
<rect width="16" height="16" fill="white"/>
</clipPath>
</defs>
</svg>
