<svg width="16" height="16" viewBox="0 0 16 16" fill="none" xmlns="http://www.w3.org/2000/svg">
<g clip-path="url(#clip0_23_334)">
<path fill-rule="evenodd" clip-rule="evenodd" d="M7.66683 1.83337C6.90079 1.83337 6.14224 1.98426 5.43451 2.27741C4.72678 2.57056 4.08371 3.00024 3.54204 3.54192C3.00036 4.08359 2.57068 4.72665 2.27753 5.43439C1.98438 6.14212 1.8335 6.90066 1.8335 7.66671C1.8335 8.43275 1.98438 9.1913 2.27753 9.89903C2.57068 10.6068 3.00036 11.2498 3.54204 11.7915C4.08371 12.3332 4.72678 12.7629 5.43451 13.056C6.14224 13.3492 6.90079 13.5 7.66683 13.5C9.21393 13.5 10.6977 12.8855 11.7916 11.7915C12.8856 10.6975 13.5002 9.2138 13.5002 7.66671C13.5002 6.11961 12.8856 4.63588 11.7916 3.54192C10.6977 2.44796 9.21393 1.83337 7.66683 1.83337ZM0.833496 7.66671C0.833496 3.89337 3.8935 0.833374 7.66683 0.833374C11.4402 0.833374 14.5002 3.89337 14.5002 7.66671C14.5002 9.37337 13.8742 10.9347 12.8395 12.132L15.0202 14.3134C15.0693 14.3591 15.1087 14.4143 15.136 14.4757C15.1633 14.537 15.178 14.6032 15.1792 14.6704C15.1804 14.7375 15.1681 14.8042 15.1429 14.8664C15.1178 14.9287 15.0803 14.9853 15.0329 15.0327C14.9854 15.0802 14.9288 15.1176 14.8666 15.1428C14.8043 15.1679 14.7376 15.1803 14.6705 15.1791C14.6033 15.1779 14.5371 15.1632 14.4758 15.1359C14.4145 15.1086 14.3593 15.0692 14.3135 15.02L12.1322 12.8394C10.8924 13.9128 9.30672 14.5025 7.66683 14.5C3.8935 14.5 0.833496 11.44 0.833496 7.66671Z" fill="#FCFCFC" fill-opacity="0.8"/>
</g>
<defs>
<clipPath id="clip0_23_334">
<rect width="16" height="16" fill="white"/>
</clipPath>
</defs>
</svg>
