<svg width="16" height="16" viewBox="0 0 16 16" fill="none" xmlns="http://www.w3.org/2000/svg">
<g clip-path="url(#clip0_88_242)">
<path d="M10.6862 6.68661C10.7354 6.64083 10.7748 6.58563 10.8021 6.5243C10.8294 6.46297 10.8441 6.39676 10.8453 6.32962C10.8465 6.26249 10.8341 6.1958 10.809 6.13354C10.7838 6.07128 10.7464 6.01473 10.6989 5.96725C10.6515 5.91977 10.5949 5.88234 10.5326 5.85719C10.4704 5.83204 10.4037 5.81969 10.3366 5.82088C10.2694 5.82206 10.2032 5.83676 10.1419 5.86409C10.0805 5.89141 10.0253 5.93082 9.97957 5.97994L6.99957 8.95994L6.01957 7.97994C5.92479 7.89162 5.79942 7.84354 5.66989 7.84582C5.54036 7.84811 5.41677 7.90058 5.32516 7.99219C5.23355 8.0838 5.18107 8.20739 5.17879 8.33693C5.1765 8.46646 5.22459 8.59182 5.31291 8.68661L6.64624 10.0199C6.73999 10.1136 6.86707 10.1662 6.99957 10.1662C7.13207 10.1662 7.25916 10.1136 7.35291 10.0199L10.6862 6.68661Z" fill="#98DD87"/>
<path fill-rule="evenodd" clip-rule="evenodd" d="M7.99967 0.833252C4.04167 0.833252 0.833008 4.04192 0.833008 7.99992C0.833008 11.9579 4.04167 15.1666 7.99967 15.1666C11.9577 15.1666 15.1663 11.9579 15.1663 7.99992C15.1663 4.04192 11.9577 0.833252 7.99967 0.833252ZM1.83301 7.99992C1.83301 6.36442 2.48271 4.7959 3.63918 3.63943C4.79566 2.48295 6.36417 1.83325 7.99967 1.83325C9.63518 1.83325 11.2037 2.48295 12.3602 3.63943C13.5166 4.7959 14.1663 6.36442 14.1663 7.99992C14.1663 9.63542 13.5166 11.2039 12.3602 12.3604C11.2037 13.5169 9.63518 14.1666 7.99967 14.1666C6.36417 14.1666 4.79566 13.5169 3.63918 12.3604C2.48271 11.2039 1.83301 9.63542 1.83301 7.99992Z" fill="#98DD87"/>
</g>
<defs>
<clipPath id="clip0_88_242">
<rect width="16" height="16" fill="white"/>
</clipPath>
</defs>
</svg>
